<?xml version="1.0" encoding="utf-8"?>
<!-- Generator: Adobe Illustrator 16.0.0, SVG Export Plug-In . SVG Version: 6.00 Build 0)  -->
<!DOCTYPE svg PUBLIC "-//W3C//DTD SVG 1.1//EN" "http://www.w3.org/Graphics/SVG/1.1/DTD/svg11.dtd">
<svg version="1.1"
	 id="图层_1" xmlns:cc="http://creativecommons.org/ns#" xmlns:dc="http://purl.org/dc/elements/1.1/" xmlns:rdf="http://www.w3.org/1999/02/22-rdf-syntax-ns#"
	 xmlns="http://www.w3.org/2000/svg" xmlns:xlink="http://www.w3.org/1999/xlink" x="0px" y="0px" width="128px" height="128px"
	 viewBox="0 0 128 128" enable-background="new 0 0 128 128" xml:space="preserve">
<path display="none" fill="#1D2D44" d="M20,0h88c11.046,0,20,8.954,20,20v88c0,11.046-8.954,20-20,20H20c-11.046,0-20-8.954-20-20
	V20C0,8.954,8.954,0,20,0z"/>
<path display="none" fill="#FFFFFF" d="M58.332,29.124c-8.932,0-16.148,7.216-16.148,16.148c0,3.682,1.226,7.07,3.293,9.784
	c4.484-5.19,11.102-8.485,18.491-8.485c3.615,0,7.044,0.805,10.132,2.216c0.25-1.131,0.381-2.307,0.381-3.515
	C74.48,36.34,67.264,29.124,58.332,29.124L58.332,29.124z M37.245,36.596c-4.651,0-8.391,3.771-8.391,8.422
	c0,1.506,0.389,2.929,1.077,4.148c2.807-1.583,6.052-2.501,9.499-2.501c0.333,0,0.653,0.012,0.981,0.032
	c-0.037-0.472-0.063-0.944-0.063-1.425c0-2.591,0.563-5.056,1.551-7.282C40.568,37.097,38.973,36.597,37.245,36.596L37.245,36.596z
	 M77.076,42.39c-0.344,0-0.675,0.042-1.014,0.063c0.146,0.923,0.254,1.854,0.254,2.818c0,1.5-0.191,2.946-0.539,4.338
	c4.075,2.255,7.459,5.629,9.689,9.72c2.313-1.204,4.893-1.97,7.631-2.153C92.392,48.9,85.535,42.391,77.076,42.39L77.076,42.39z
	 M63.968,48.406c-12.498,0-22.607,10.108-22.607,22.607c0,12.497,10.108,22.606,22.607,22.606c12.499,0,22.607-10.109,22.607-22.606
	C86.575,58.514,76.466,48.406,63.968,48.406z M39.43,48.501c-9.696,0-17.541,7.845-17.541,17.541c0,5.708,2.719,10.761,6.934,13.963
	c1.776-3.427,5.345-5.763,9.467-5.763c0.498,0,0.976,0.061,1.457,0.127c-0.151-1.097-0.222-2.219-0.222-3.356
	c0-5.439,1.771-10.47,4.781-14.533c-1.802-2.255-3.091-4.964-3.641-7.916C40.257,48.536,39.844,48.501,39.43,48.501L39.43,48.501z
	 M94.396,58.95c-2.945,0-5.703,0.752-8.138,2.026c1.383,3.063,2.153,6.461,2.153,10.038c0,6.695-2.692,12.775-7.061,17.192
	C84.561,91.77,89.217,94,94.396,94c9.695,0,17.541-7.844,17.541-17.541C111.938,66.764,104.092,58.95,94.396,58.95L94.396,58.95z
	 M20.18,61.261C11.247,61.26,4,68.444,4,77.377c0,8.932,7.248,16.178,16.179,16.178c3.399,0,6.549-1.059,9.15-2.85
	c-1.075-1.67-1.71-3.667-1.71-5.793c0-1.104,0.163-2.165,0.475-3.167c-4.871-3.52-8.042-9.247-8.042-15.704
	c0-1.64,0.216-3.227,0.602-4.749c-0.16-0.004-0.313-0.032-0.475-0.032L20.18,61.261z M115.135,75.129
	c-0.477,0-0.938,0.055-1.393,0.127c0.025,0.402,0.031,0.795,0.031,1.203c0,5.15-2.032,9.825-5.319,13.299
	c1.617,1.88,3.993,3.07,6.681,3.07c4.896,0,8.865-3.938,8.865-8.834S120.031,75.129,115.135,75.129z M38.291,76.079
	c-4.896,0-8.834,3.938-8.834,8.834c0,4.896,3.938,8.865,8.834,8.865c3.753,0,6.938-2.342,8.232-5.636
	c-3.157-3.215-5.425-7.316-6.428-11.873C39.509,76.148,38.914,76.08,38.291,76.079L38.291,76.079z"/>
<image overflow="visible" width="128" height="128" xlink:href="favicon-touch.png"  transform="matrix(1 0 0 0.9766 0 1.5)">
</image>
</svg>
