<?xml version="1.0" encoding="utf-8"?>
<!-- Generator: Adobe Illustrator 16.0.0, SVG Export Plug-In . SVG Version: 6.00 Build 0)  -->
<!DOCTYPE svg PUBLIC "-//W3C//DTD SVG 1.1//EN" "http://www.w3.org/Graphics/SVG/1.1/DTD/svg11.dtd">
<svg 
                xmlns:dc="http://purl.org/dc/elements/1.1/"
                xmlns:cc="http://creativecommons.org/ns#" 
                xmlns:rdf="http://www.w3.org/1999/02/22-rdf-syntax-ns#" 
                xmlns:svg="http://www.w3.org/2000/svg"
	 xmlns="http://www.w3.org/2000/svg" 
                xmlns:xlink="http://www.w3.org/1999/xlink" 
                xmlns:sodipodi="http://sodipodi.sourceforge.net/DTD/sodipodi-0.dtd"
                xmlns:inkscape="http://www.inkscape.org/namespaces/inkscape"
                version="1.1"
	 id="Layer_1" 
                x="0px" 
                y="0px" 
                width="252px" 
                height="120px"
	 viewBox="0 0 252 120" 
                enable-background="new 0 0 252 120" 
                xml:space="preserve">
<path fill="#ffffff" d="M146.814,18.881c-0.002-1.253,0.299-1.837,0.756-2.57c5.009-1.21,16.892,12.139,21.472,3.024
	c-1.06,0.202-2.117,0.403-3.176,0.605c-1.171-0.203-2.235-1.418-3.931-0.756c-0.969,0.397-1.145,0.984-1.513,1.965
	c-0.151-0.05-0.303-0.101-0.454-0.151c-0.453-0.605-0.906-1.21-1.361-1.814c0.052-0.252,0.103-0.504,0.151-0.756
	c1.119-1.082,2.948-0.823,4.386-1.664c2.068-1.21,3.396-3.215,6.199-3.78c2.756-0.555,4.475,0.829,6.198,1.21
	c1.39,0.307,2.216-0.489,3.176-0.756c1.335-3.206,1.812-8.515,6.199-8.619c-0.241,2.336-2.04,4.243-2.722,6.653
	c0.051,0,0.101,0,0.15,0c3.062-1.847,6.426-4.227,8.618-6.955c0.906-1.059,1.813-2.117,2.722-3.175
	c0.686,0.13,0.451-0.018,0.756,0.454c0.711,1.996-1.599,4.257-2.42,5.443c-3.475,5.028-8.158,7.946-12.246,12.247
	c0.052,0.101,0.102,0.202,0.15,0.302c4.557,1.986,10.361,11.216,8.016,18.598c-0.103-0.051-0.202-0.101-0.303-0.152
	c-0.805-1.706-7.351-5.186-10.434-3.931c0,0.05,0,0.101,0,0.151c10.234,1.342,15.859,14.153,6.048,19.958
	c-3.979,2.355-9.056,0.128-9.979-3.477c-1.27-4.955,2.729-6.869,6.805-6.199c0,0.05,0,0.101,0,0.151
	c-2.167,0.271-3.432,1.488-3.326,4.083c0.344,0.718,0.627,1.175,1.359,1.512c0.707,0,1.412,0,2.117,0
	c4.955-3.137-0.986-11.751-6.049-8.315c-3.939,2.676-7.74,11.023,0.605,14.667c9.337,4.075,16.813-4.548,22.074-7.863
	c11.386-7.171,22.502-5.48,32.207,1.815c0.051,0,0.102,0,0.15,0c-0.015-12.491,12.113-11.376,17.236-17.993
	c0.799-1.032,0.783-2.1,1.361-3.478c0,0.101,0,0.202,0,0.303c0.818,1.2,1.127,3.906,0.754,5.746
	c-0.434,2.154-0.726,3.438-1.813,4.838c-2.593,3.33-11.055,4.063-9.829,10.887c1.369,7.621,12.8,4.48,8.468-1.361
	c-1.19-0.405-1.949-0.638-3.326-0.303c-0.387,0.565-0.627,0.769-0.756,1.664c0.354,0.454,0.705,0.907,1.059,1.36
	c0.504-0.05,1.008-0.1,1.512-0.151c0.598-0.275,0.68-0.413,0.906-1.059c0.052,0,0.102,0,0.152,0c0,0.303,0,0.604,0,0.907
	c-0.102,0.302-0.203,0.604-0.303,0.907c-2.176,1.659-6.678,0.761-5.897-3.175c0.581-2.929,4.713-5.308,8.166-3.327
	c3.012,1.728,4.126,6.599,1.966,10.131c-2.357,3.853-7.34,5.109-13.004,3.931c4.13,10.27-1.622,19.109-8.77,22.529
	c1.209,2.778,2.346,5.332,4.082,7.559c1.107,1.109,2.217,2.219,3.326,3.328c-3.675,1.201-8.152,5.766-8.619,10.129
	c0.244,0.26,0.284,0.393,0.605,0.605c0.453,0.049,0.906,0.1,1.361,0.149c-0.051,0.151-0.103,0.303-0.152,0.453
	c-0.201,0.151-0.403,0.303-0.604,0.455c-5.091,0.051-10.183,0.1-15.271,0.149c-0.016-0.781-0.713-1.147-0.908-2.268
	c3.738,2.514,12.811-6.951,14.516-9.676c0-0.053,0-0.104,0-0.152c-5.467-1.098-14.844-8.539-16.935-13.154
	c-1.858-4.106-0.834-10.248,1.966-12.397c3.643-2.8,10.885-2.525,12.096,2.418c0.687,2.795-1.515,8.377-4.838,5.897
	c1.07-0.219,1.368-0.713,1.965-1.361c-0.049-0.856-0.101-1.713-0.15-2.569c-2.527-2.783-7.098-0.623-6.048,4.082
	c0.614,2.754,3.62,4.644,7.259,3.778c9.882-2.344,5.908-16.188-2.723-17.84c-9.223-1.768-13.317,9.07-17.389,13.154
	c-6.406,6.426-17.697,10.205-30.392,8.014c-2.158,9.652-14.681,10.765-16.631,19.504c0.559,0.281,1.083,0.308,1.813,0.152
	c-0.052,0.25-0.101,0.504-0.15,0.756c-0.151,0.051-0.303,0.101-0.454,0.15c-1.32,0.57-13.175,0.697-14.818,0
	c-0.97-0.395-1.161-0.957-1.512-1.965c3.381,1.268,6.163-1.307,8.315-2.723c5.549-3.648,8.987-7.24,10.735-14.816
	c0.337-1.465,1.052-3.807,0.604-5.898c-0.844-3.949-6.887-8.889-9.072-12.852c-3.6-6.523-2.653-17.98,1.059-23.587
	c1.356-2.048,3.357-3.251,4.99-4.99c0-0.051,0-0.101,0-0.151c-4.238,0.188-6.244,2.707-7.258,6.048c-0.102,0-0.202,0-0.303,0
	c-0.252-1.562-0.504-3.125-0.756-4.687c-0.646-1.262-2.896-2.312-2.117-4.687c0.453-0.858,2.342-2.48,3.176-3.024
	c0,0.755,0,1.512,0,2.268c2.18,0.829,8.497,0.978,10.434-0.151c0-0.051,0-0.101,0-0.151c-4.438,0.125-7.854-1.125-9.678-3.628
	c3.874,0.689,9.541,1.911,13.004-0.152c-0.051-0.251-0.102-0.503-0.152-0.756c-1.398-3.033-11.469-6.091-14.816-2.721
	c0.055,1.31,0.539,1.625,1.21,2.268c-0.304,0-0.604,0-0.907,0c-1.059-0.422-1.785-1.521-2.57-1.815
	c-1.013-0.378-1.834-0.014-2.722-0.604c-0.462-1.581-1.005-4.246,0.151-5.443C142.572,19.155,145.025,18.868,146.814,18.881z"/>
<path fill="#ffffff" d="M145.305,58.798c0.1,1.411,0.2,2.823,0.303,4.235c0.746,2.842,2.677,5.779,4.535,8.314
	c-4.178-0.091-8.348-0.32-10.888,1.512c-0.067,3.969,3.405,8.668,6.806,9.074c0.354-0.304,0.705-0.607,1.059-0.91
	c0,0.104,0,0.203,0,0.303c0,0.254,0,0.504,0,0.756c-0.83,1.875-7.569,8.428-9.828,6.805c0.896-0.061,1.115-0.268,1.663-0.604
	c1.694-6.494-6.072-15.548-8.468-19.808c3.68-1.059,7.359-2.115,11.037-3.174C141.818,61.889,143.691,60.785,145.305,58.798z"/>
<path fill="#ffffff" d="M205.783,78c0.402,1.412,0.808,2.822,1.209,4.234c1.1,2.602,3.009,4.088,4.688,6.047
	c-5.408-1.697-10.158,3.035-12.097,6.654c0.202,0.354,0.403,0.705,0.604,1.059c0.453,0.049,0.908,0.1,1.36,0.15
	c-0.149,0.252-0.302,0.504-0.452,0.756c-4.939,0.1-9.881,0.203-14.818,0.303c-0.563-0.824-1.073-1.209-1.512-2.268
	c2.998,1.205,6.025-1.037,8.314-2.418C198.652,89.156,203.764,84.803,205.783,78z"/>
<path fill="#ffffff" d="M73.57,88.324c0,1.215,0,2.433,0,3.648c-0.769,0-1.536,0-2.305,0c-0.873,5.15-5.376,9.873-11.328,9.983
	c-0.042,7.832,5.347,10.198,13.632,9.983c0,1.15,0,2.304,0,3.455c-11.153,0.213-17.576-2.731-17.473-13.438
	c-11.918-0.342-16.894-17.287-7.872-24.386c10.268-8.077,22.245-1.463,23.616,10.753C72.418,88.324,72.994,88.324,73.57,88.324z"/>
<path fill="#ffffff" d="M17.506,74.691c1.28,0,2.561,0,3.84,0c0.04,8.434,1.336,19.215-0.384,26.881c-1.24,0.633-3.336,1.193-4.8,0.191
	c-1.06-0.727-9.758-18.848-10.368-21.119c-0.064,0-0.128,0-0.192,0c0,7.039,0,14.08,0,21.119c-1.408,0-2.816,0-4.224,0
	c-0.07-6.672-1.386-22.634,1.344-26.496c1.393-0.47,2.649-0.613,4.224-0.191c3.684,5.176,8.344,14.596,10.368,20.928
	c0.064,0,0.128,0,0.192,0C17.506,88.9,17.506,81.795,17.506,74.691z"/>
<path fill="#ffffff" d="M41.314,74.691c0,1.151,0,2.305,0,3.457c-6.642-0.146-12.118,2.362-13.056,7.871
	c4.352-0.063,8.705-0.127,13.056-0.191c0,1.217,0,2.432,0,3.648c-4.352,0-8.705,0-13.056,0c0.273,6.67,5.549,9.032,13.056,8.832
	c0,1.15,0,2.303,0,3.455C17.941,102.275,18.636,74.299,41.314,74.691z"/>
<path fill="#2a4362" d="M67.618,88.709c0.195-8.369-8.589-14.773-15.937-9.217c-6.41,4.848-4.299,18.689,4.8,19.008
	C57.308,93.734,62.456,89.085,67.618,88.709z"/>
<path fill="#ffffff" d="M76.258,88.324c1.28,0,2.561,0,3.841,0c0,9.023,0,18.049,0,27.072c-1.28,0-2.561,0-3.841,0
	C76.258,106.373,76.258,97.348,76.258,88.324z"/>
<path fill="#ffffff" d="M139.234,88.709c1.279,0,2.561,0,3.84,0c0.277,12.869,2.252,31.932-13.248,26.879
	c-8.724-2.844-7.707-18.688,3.648-18.623c2.036,0.012,3.78,0.314,4.801,1.344c-0.064,1.215-0.129,2.433-0.193,3.648
	c-3.76-1.955-8.537-1.998-10.176,2.111c-1.729,4.334,1.768,9.553,6.529,8.641C141.344,111.383,139.438,96.928,139.234,88.709z"/>
<path fill="#2a4362" d="M66.466,92.74c-2.284,1.697-4.58,2.559-5.567,5.568c2.931-1.146,4.97-2.658,6.144-5.568
	C66.85,92.74,66.658,92.74,66.466,92.74z"/>
<path fill="#ffffff" d="M91.234,96.389c13.413-0.438,15.336,15.666,5.76,19.008c-8.261,2.884-15.5-3.987-13.248-12.287
	C84.846,99.055,87.714,98.084,91.234,96.389z"/>
<path fill="#ffffff" d="M105.635,96.771c1.151,0,2.303,0,3.455,0c-0.223,7.11-1.647,17.438,6.145,15.553
	c3.417-2.528,2.588-9.617,2.496-15.553c1.152,0,2.305,0,3.456,0c0.214,9.438,1.545,18.071-6.72,19.393
	C104.119,117.816,105.436,105.82,105.635,96.771z"/>
<path fill="#2a4362" d="M92.002,99.844c-7.215,3.127-5.214,14.135,2.305,12.48C101.211,110.805,100.851,99.468,92.002,99.844z"/>
</svg>
