<?xml version="1.0" encoding="utf-8"?>
<!-- Generator: Adobe Illustrator 16.0.0, SVG Export Plug-In . SVG Version: 6.00 Build 0)  -->
<!DOCTYPE svg PUBLIC "-//W3C//DTD SVG 1.1//EN" "http://www.w3.org/Graphics/SVG/1.1/DTD/svg11.dtd">
<svg version="1.1"
	 id="图层_1" xmlns:cc="http://creativecommons.org/ns#" xmlns:dc="http://purl.org/dc/elements/1.1/" xmlns:rdf="http://www.w3.org/1999/02/22-rdf-syntax-ns#"
	 xmlns="http://www.w3.org/2000/svg" xmlns:xlink="http://www.w3.org/1999/xlink" x="0px" y="0px" width="32px" height="32px"
	 viewBox="0 0 32 32" enable-background="new 0 0 32 32" xml:space="preserve">
<path display="none" fill="#1D2D44" d="M5,0h22c2.762,0,5,2.239,5,5v22c0,2.762-2.238,5-5,5H5c-2.761,0-5-2.238-5-5V5
	C0,2.239,2.239,0,5,0z"/>
<path display="none" fill="#FFFFFF" d="M14.583,7.281c-2.233,0-4.037,1.804-4.037,4.037c0,0.92,0.307,1.768,0.823,2.446
	c1.121-1.297,2.775-2.121,4.623-2.121c0.904,0,1.761,0.201,2.533,0.554c0.063-0.283,0.095-0.577,0.095-0.878
	C18.62,9.085,16.816,7.281,14.583,7.281L14.583,7.281z M9.311,9.149c-1.163,0-2.098,0.943-2.098,2.105
	c0,0.376,0.097,0.732,0.27,1.037c0.702-0.396,1.513-0.625,2.375-0.625c0.083,0,0.163,0.003,0.246,0.008
	c-0.009-0.118-0.016-0.236-0.016-0.356c0-0.647,0.141-1.264,0.388-1.82C10.142,9.274,9.743,9.149,9.311,9.149L9.311,9.149z
	 M19.27,10.598c-0.086,0-0.17,0.011-0.254,0.016c0.037,0.231,0.063,0.464,0.063,0.705c0,0.375-0.048,0.737-0.135,1.084
	c1.019,0.564,1.864,1.407,2.423,2.43c0.578-0.301,1.223-0.493,1.907-0.538C23.098,12.226,21.384,10.598,19.27,10.598L19.27,10.598z
	 M15.992,12.102c-3.125,0-5.652,2.527-5.652,5.652c0,3.124,2.527,5.651,5.652,5.651s5.651-2.527,5.651-5.651
	C21.644,14.628,19.117,12.102,15.992,12.102z M9.857,12.125c-2.424,0-4.385,1.961-4.385,4.385c0,1.427,0.68,2.69,1.733,3.491
	c0.444-0.857,1.336-1.441,2.367-1.441c0.125,0,0.244,0.016,0.364,0.032c-0.038-0.274-0.055-0.555-0.055-0.839
	c0-1.36,0.442-2.618,1.195-3.634c-0.45-0.563-0.772-1.241-0.91-1.979C10.064,12.134,9.961,12.125,9.857,12.125L9.857,12.125z
	 M23.599,14.737c-0.736,0-1.426,0.188-2.034,0.507c0.346,0.766,0.538,1.615,0.538,2.51c0,1.674-0.673,3.193-1.765,4.298
	c0.802,0.891,1.966,1.448,3.26,1.448c2.425,0,4.386-1.961,4.386-4.385S26.022,14.738,23.599,14.737L23.599,14.737z M5.044,15.315
	C2.813,15.314,1,17.11,1,19.344c0,2.232,1.812,4.045,4.045,4.045c0.85,0,1.637-0.266,2.288-0.713
	c-0.269-0.418-0.428-0.917-0.428-1.448c0-0.276,0.041-0.542,0.119-0.792c-1.218-0.88-2.011-2.312-2.011-3.926
	c0-0.41,0.054-0.807,0.15-1.188C5.124,15.321,5.085,15.314,5.044,15.315L5.044,15.315z M28.783,18.782
	c-0.119,0-0.234,0.014-0.348,0.032c0.006,0.101,0.008,0.198,0.008,0.301c0,1.287-0.508,2.455-1.33,3.324
	c0.404,0.471,0.998,0.768,1.67,0.768c1.225,0,2.217-0.984,2.217-2.208S30.008,18.782,28.783,18.782L28.783,18.782z M9.572,19.02
	c-1.224,0-2.208,0.984-2.208,2.209c0,1.224,0.985,2.217,2.208,2.217c0.938,0,1.735-0.586,2.058-1.41
	c-0.789-0.803-1.356-1.828-1.607-2.968C9.877,19.037,9.728,19.02,9.572,19.02L9.572,19.02z"/>
<image overflow="visible" width="32" height="32" xlink:href="favicon.png"  transform="matrix(1 0 0 1 0 0.2539)">
</image>
</svg>
